<svg width="207" height="45" viewBox="0 0 207 45" fill="none" xmlns="http://www.w3.org/2000/svg">
<path d="M37.024 10.94C32.92 8.60933 28.512 7.216 23.8 6.76V44H16.428V6.76C11.716 7.216 7.308 8.60933 3.204 10.94L0.696 5.316C3.53333 3.59333 6.59867 2.32666 9.892 1.516C13.1853 0.654665 16.58 0.223997 20.076 0.223997C27.372 0.223997 33.8573 1.92133 39.532 5.316L37.024 10.94ZM59.2107 44.608C55.8667 44.608 52.5987 44.152 49.4067 43.24C46.2653 42.2773 43.808 41.0107 42.0347 39.44L44.9227 33.664C46.6453 35.0827 48.7987 36.2227 51.3827 37.084C54.0173 37.9453 56.728 38.376 59.5147 38.376C62.9093 38.376 65.392 37.8187 66.9627 36.704C68.584 35.5893 69.3947 34.1453 69.3947 32.372C69.3947 31.004 68.9133 29.8893 67.9507 29.028C67.0387 28.1667 65.8733 27.508 64.4547 27.052C63.036 26.596 61.1107 26.1147 58.6787 25.608C55.3853 24.8987 52.7 24.164 50.6227 23.404C48.596 22.644 46.848 21.4533 45.3787 19.832C43.96 18.16 43.2507 15.9053 43.2507 13.068C43.2507 9.21733 44.796 6.12667 47.8867 3.796C51.028 1.41466 55.284 0.223997 60.6547 0.223997C63.3907 0.223997 66.0253 0.553331 68.5587 1.212C71.1427 1.82 73.3467 2.732 75.1707 3.948L72.5107 9.876C69.2173 7.596 65.1893 6.456 60.4267 6.456C57.1333 6.456 54.676 7.03867 53.0547 8.204C51.4333 9.31866 50.6227 10.788 50.6227 12.612C50.6227 13.98 51.0787 15.0947 51.9907 15.956C52.9533 16.8173 54.144 17.476 55.5627 17.932C57.032 18.388 58.9827 18.8693 61.4147 19.376C64.7587 20.136 67.4187 20.896 69.3947 21.656C71.4213 22.3653 73.144 23.5307 74.5627 25.152C76.032 26.7733 76.7667 28.952 76.7667 31.688C76.7667 35.64 75.196 38.7813 72.0547 41.112C68.964 43.4427 64.6827 44.608 59.2107 44.608ZM124.438 0.831999V44H117.37V38.756C115.9 40.6813 113.975 42.1507 111.594 43.164C109.263 44.1267 106.578 44.608 103.538 44.608C98.2177 44.608 94.0377 43.0373 90.9977 39.896C88.0083 36.704 86.5137 32.2707 86.5137 26.596V0.831999H93.8857V26.368C93.8857 30.168 94.823 33.1067 96.6977 35.184C98.623 37.2107 101.359 38.224 104.906 38.224C108.706 38.224 111.67 37.16 113.798 35.032C115.976 32.8533 117.066 29.788 117.066 25.836V0.831999H124.438ZM153.815 25.38L146.443 32.828V44H139.071V0.831999H146.443V23.708L169.015 0.831999H177.223L158.755 20.288L178.439 44H169.699L153.815 25.38ZM198.74 6.912V37.844H206.872V44H183.16V37.844H191.368V6.912H183.16V0.831999H206.872V6.912H198.74Z" fill="black"/>
</svg>
